<svg width="50" height="50" viewBox="0 0 50 50" fill="none" xmlns="http://www.w3.org/2000/svg">
<circle cx="25" cy="25" r="25" fill="white"/>
<path d="M39.507 28.626C41.1721 28.75 40.9539 26.6856 41 25.48C40.1214 3.50665 9.87928 3.50665 9 25.48C9.18126 42.7711 31.3775 48.3761 39.2021 33.1142C39.9333 31.6288 37.7674 30.4709 37.0209 31.9405C34.683 36.6037 30.0748 39.4983 24.9997 39.4983C17.5343 39.4983 11.4574 33.2096 11.4574 25.4766C12.2009 6.87448 37.798 6.881 38.542 25.4766C38.5942 26.6217 37.9582 28.3649 39.5066 28.6226L39.507 28.626Z" fill="#1BA64B"/>
<path d="M25 37C25.723 37 26.3086 36.4139 26.3086 35.6903V33.1234C29.8026 32.5602 32.5638 29.8002 33.1265 26.3001H35.6914C36.4144 26.3001 37 25.714 37 24.9904C37 24.2668 36.4144 23.6807 35.6914 23.6807H33.1265C32.5638 20.1839 29.8026 17.4205 26.3086 16.8574V14.2904C26.2824 12.5748 23.7209 12.565 23.6914 14.2904V16.8574C20.1974 17.4205 17.4361 20.184 16.8735 23.6807H14.3086C13.5856 23.6807 13 24.2668 13 24.9904C13 25.714 13.5856 26.3001 14.3086 26.3001H16.8735C17.4362 29.7969 20.1974 32.5603 23.6914 33.1234V35.6903C23.6914 36.4139 24.277 37 25 37ZM19.5464 26.2997H20.4525C22.1767 26.2703 22.1701 23.7099 20.4525 23.6804H19.5464C20.0371 21.6308 21.6434 20.0231 23.6914 19.532V20.439C23.6914 21.1625 24.277 21.7486 25 21.7486C25.723 21.7486 26.3086 21.1625 26.3086 20.439V19.532C28.3566 20.0232 29.9629 21.6308 30.4536 23.6804H29.5475C28.8244 23.6804 28.2388 24.2665 28.2388 24.9901C28.2388 25.7136 28.8244 26.2997 29.5475 26.2997H30.4536C29.9629 28.3493 28.3566 29.957 26.3086 30.4481V29.5412C26.3086 28.8176 25.723 28.2315 25 28.2315C24.277 28.2315 23.6914 28.8176 23.6914 29.5412V30.4481C21.6434 29.9569 20.0371 28.3493 19.5464 26.2997Z" fill="#1BA64B"/>
</svg>
