<svg width="50" height="50" viewBox="0 0 50 50" fill="none" xmlns="http://www.w3.org/2000/svg">
<circle cx="25" cy="25" r="25" fill="white"/>
<path d="M11.4584 30.5556C11.4584 29.5967 12.239 28.8195 13.202 28.8195H14.9456C15.9086 28.8195 16.6892 29.5967 16.6892 30.5556V35.7639C16.6892 36.7227 15.9086 37.5 14.9456 37.5H13.202C12.239 37.5 11.4584 36.7227 11.4584 35.7639V30.5556Z" fill="#1BA64B"/>
<path d="M18.4328 27.0833C18.4328 26.1245 19.2135 25.3472 20.1764 25.3472H21.92C22.883 25.3472 23.6636 26.1245 23.6636 27.0833V35.7639C23.6636 36.7227 22.883 37.5 21.92 37.5H20.1764C19.2135 37.5 18.4328 36.7227 18.4328 35.7639V27.0833Z" fill="#1BA64B"/>
<path d="M25.4073 23.6111C25.4073 22.6523 26.1879 21.875 27.1509 21.875H28.8945C29.8574 21.875 30.6381 22.6523 30.6381 23.6111V35.7639C30.6381 36.7227 29.8574 37.5 28.8945 37.5H27.1509C26.1879 37.5 25.4073 36.7227 25.4073 35.7639V23.6111Z" fill="#1BA64B"/>
<path d="M32.3817 20.1389C32.3817 19.1801 33.1623 18.4028 34.1253 18.4028H35.8689C36.8319 18.4028 37.6125 19.1801 37.6125 20.1389V35.7639C37.6125 36.7227 36.8319 37.5 35.8689 37.5H34.1253C33.1623 37.5 32.3817 36.7227 32.3817 35.7639V20.1389Z" fill="#1BA64B"/>
<path fill-rule="evenodd" clip-rule="evenodd" d="M11.8717 25.7588C11.6434 25.3367 11.802 24.8102 12.226 24.5829L34.8929 12.4302C35.3168 12.2029 35.8456 12.3608 36.0738 12.7829C36.3021 13.205 36.1435 13.7315 35.7196 13.9588L13.0526 26.1115C12.6287 26.3388 12.1 26.1809 11.8717 25.7588Z" fill="#1BA64B"/>
<path d="M38.1925 11.4583H33.2962C32.9282 11.4583 32.8111 11.9523 33.1402 12.1161L35.1134 13.0985C35.2315 13.1573 35.3062 13.2775 35.3062 13.409V16.2272C35.3062 16.5833 35.7802 16.7087 35.9577 16.3995L38.4952 11.9778C38.6281 11.7464 38.4602 11.4583 38.1925 11.4583Z" fill="#1BA64B"/>
</svg>
